<?xml version="1.0" encoding="UTF-8"?>
<svg width="1200pt" height="1200pt" version="1.1" viewBox="0 0 1200 1200" xmlns="http://www.w3.org/2000/svg">
 <path d="m219.6 196.8 4.8008 96-34.801 7.1992h-3.6016c-2.3984-48-2.3984-56.398-3.6016-58.801-1.1992-25.199-21.602-46.801-46.801-46.801-26.398 0-46.801 20.398-46.801 46.801 0 9.6016 12 214.8 31.199 549.6 3.6016 52.801 24 92.398 54 120-14.398 13.199-24 30-26.398 50.398-4.8008 44.398 26.398 85.199 70.801 90 124.8 14.398 255.6 22.801 390 22.801 139.2 0 276-8.3984 404.4-24 40.801-4.8008 70.801-39.602 70.801-80.398 0-3.6016 0-7.1992-1.1992-9.6016-2.3984-20.398-13.199-38.398-27.602-51.602 27.602-27.602 48-66 50.398-117.6 19.199-334.8 31.199-541.2 31.199-549.6 0-26.398-20.398-46.801-46.801-46.801-25.199 0-45.602 21.602-46.801 46.801 0 1.1992 0 10.801-3.6016 58.801h-3.6016l-31.199-6 4.8008-97.199c0-40.801-33.602-78-74.398-78l-640.79 0.003906c-40.801 1.1992-74.398 37.199-74.398 78zm-6 589.2c-12-200.4-19.199-327.6-24-408l37.199-8.3984 24 410.4c0 32.398 21.602 61.199 51.602 70.801l-7.2031 25.199c-36-10.801-78-34.801-81.598-90zm615.6 117.6c-72 4.8008-145.2 8.3984-220.8 8.3984-73.199 0-145.2-2.3984-214.8-7.1992-2.3984-2.3984-3.6016-7.1992-7.1992-8.3984l4.8008-44.398h433.2zm207.6-525.6c-4.8008 80.398-12 207.6-24 408-3.6016 60-54 84-93.602 93.602l-6-25.199c37.199-3.6016 67.199-36 67.199-74.398l21.602-409.2z"/>
</svg>
